<?xml version="1.0" standalone="no"?><!DOCTYPE svg PUBLIC "-//W3C//DTD SVG 1.1//EN" "http://www.w3.org/Graphics/SVG/1.1/DTD/svg11.dtd"><svg class="icon" width="200px" height="200.00px" viewBox="0 0 1024 1024" version="1.1" xmlns="http://www.w3.org/2000/svg"><path d="M307.904 455.424c0-15.424-12.8-28.416-27.968-28.416H182.336V329.408a28.48 28.48 0 0 0-28.416-27.904c-15.36 0-28.352 12.8-28.352 27.904v97.6H27.904A28.544 28.544 0 0 0 0 455.424c0 15.36 12.8 28.352 27.904 28.352h97.6v97.6c0 15.168 12.992 27.904 28.352 27.904 15.424 0 28.416-12.8 28.416-27.904V483.776h97.6a28.608 28.608 0 0 0 28.032-28.352zM972.992 593.152a265.152 265.152 0 0 0-114.88-87.616c19.136-13.504 35.392-30.976 47.36-50.88 15.232-25.344 23.232-54.208 23.232-83.456 0-91.392-76.288-165.696-170.048-165.696-14.848 0-26.944 11.264-26.944 25.216 0 13.952 12.096 25.28 26.944 25.28 64 0 116.096 51.712 116.096 115.2a115.84 115.84 0 0 1-116.096 115.328c-14.848 0-26.944 11.264-26.944 25.28 0 13.952 12.096 25.216 26.944 25.216 116.608 0 211.456 93.696 211.456 208.832 0 13.888 12.096 25.216 26.944 25.216s26.944-11.264 26.944-25.216c0-55.296-17.664-108.096-51.008-152.704z"  /><path d="M648.896 516.8a184.96 184.96 0 0 0 75.712-149.312c0-102.144-83.072-185.216-185.216-185.216S354.176 265.408 354.176 367.552c0 59.264 28.288 114.752 76.032 149.632-126.976 43.84-217.728 161.664-226.688 295.232a27.52 27.52 0 0 0 25.6 29.248l1.856 0.064a27.52 27.52 0 0 0 27.328-25.6 282.24 282.24 0 0 1 281.024-262.592 280.128 280.128 0 0 1 280.512 255.36l0.448 6.336a26.88 26.88 0 0 0 27.456 25.728l1.6-0.064a27.584 27.584 0 0 0 25.728-29.184l-0.576-7.552a334.592 334.592 0 0 0-225.6-287.36z m20.8-149.248a130.496 130.496 0 0 1-130.304 130.304c-71.872 0-130.304-58.496-130.304-130.304s58.496-130.304 130.304-130.304a130.432 130.432 0 0 1 130.304 130.304z"  /></svg>