<?xml version="1.0" standalone="no"?><!DOCTYPE svg PUBLIC "-//W3C//DTD SVG 1.1//EN" "http://www.w3.org/Graphics/SVG/1.1/DTD/svg11.dtd"><svg class="icon" width="200px" height="200.00px" viewBox="0 0 1024 1024" version="1.1" xmlns="http://www.w3.org/2000/svg"><path d="M469.333333 746.666667a276.053333 276.053333 0 0 1 43.605334-149.333334h-288.853334a95.957333 95.957333 0 0 0-95.914666 95.914667v39.253333c0 24.405333 7.594667 48.213333 21.76 68.096C215.722667 892.928 323.413333 938.666667 469.333333 938.666667c25.6 0 50.005333-1.408 73.258667-4.224A276.352 276.352 0 0 1 469.333333 746.666667z m0-661.162667a213.333333 213.333333 0 1 1 0 426.666667 213.333333 213.333333 0 0 1 0-426.666667zM981.333333 746.666667a234.666667 234.666667 0 1 1-469.333333 0 234.666667 234.666667 0 0 1 469.333333 0z m-384 0a21.333333 21.333333 0 0 0 21.333334 21.333333h256a21.333333 21.333333 0 0 0 0-42.666667h-256a21.333333 21.333333 0 0 0-21.333334 21.333334z" fill="#707070" /></svg>