<?xml version="1.0" standalone="no"?><!DOCTYPE svg PUBLIC "-//W3C//DTD SVG 1.1//EN" "http://www.w3.org/Graphics/SVG/1.1/DTD/svg11.dtd"><svg class="icon" width="200px" height="200.00px" viewBox="0 0 1024 1024" version="1.1" xmlns="http://www.w3.org/2000/svg"><path d="M746.666667 512a234.666667 234.666667 0 1 1 0 469.333333 234.666667 234.666667 0 0 1 0-469.333333z m-233.685334 85.333333A276.053333 276.053333 0 0 0 469.333333 746.666667c0 69.546667 25.6 133.12 67.925334 181.845333-33.92 6.826667-70.826667 10.24-110.592 10.24-145.92 0-253.610667-45.781333-319.402667-138.112a117.333333 117.333333 0 0 1-21.76-68.096v-39.253333a95.957333 95.957333 0 0 1 95.957333-96h331.52z m233.685334-21.333333l-3.84 0.341333a21.333333 21.333333 0 0 0-17.152 17.152L725.333333 597.333333v128h-128l-3.84 0.341334a21.333333 21.333333 0 0 0-17.152 17.152l-0.341333 3.84 0.341333 3.84a21.333333 21.333333 0 0 0 17.194667 17.152L597.333333 768h127.914667L725.333333 896l0.341334 3.84a21.333333 21.333333 0 0 0 17.152 17.152l3.84 0.341333 3.84-0.341333a21.333333 21.333333 0 0 0 17.152-17.152L768 896v-128h128l3.84-0.341333a21.333333 21.333333 0 0 0 17.152-17.152l0.341333-3.84-0.341333-3.84a21.333333 21.333333 0 0 0-17.152-17.152L896 725.333333h-128v-128l-0.341333-3.84a21.333333 21.333333 0 0 0-17.152-17.152l-3.84-0.341333zM426.666667 85.546667a213.333333 213.333333 0 1 1 0 426.666666 213.333333 213.333333 0 0 1 0-426.666666z" fill="#707070" /></svg>